<?xml version="1.0" encoding="UTF-8" standalone="no"?>
<svg xmlns="http://www.w3.org/2000/svg" xmlns:xlink="http://www.w3.org/1999/xlink" width="500" height="600" version="1.0">
  <defs>
    <linearGradient id="c">
      <stop offset="0" stop-color="#fff" stop-opacity=".3137255"/>
      <stop offset=".19" stop-color="#fff" stop-opacity=".25098041"/>
      <stop offset=".60000002" stop-color="#6b6b6b" stop-opacity=".1254902"/>
      <stop offset="1" stop-opacity=".1254902"/>
    </linearGradient>
    <linearGradient id="d">
      <stop offset="0" stop-color="#d18968"/>
      <stop offset=".5" stop-color="#c26e43"/>
      <stop offset="1" stop-color="#a6412a"/>
    </linearGradient>
    <linearGradient id="a">
      <stop offset="0" stop-color="#887362"/>
      <stop offset="1" stop-color="#887362" stop-opacity="0"/>
    </linearGradient>
    <linearGradient id="b">
      <stop offset="0" stop-color="#d18968"/>
      <stop offset="1" stop-color="#d18968" stop-opacity="0"/>
    </linearGradient>
    <linearGradient id="e">
      <stop offset="0" stop-color="#ad9989"/>
      <stop offset="1" stop-color="#ad9989" stop-opacity="0"/>
    </linearGradient>
    <linearGradient xlink:href="#a" id="n" x1="-68.501472" x2="-69.648537" y1="16.164436" y2="14.467897" gradientTransform="matrix(37.26702 0 0 37.00667 2734.5233 -184.20726)" gradientUnits="userSpaceOnUse"/>
    <linearGradient xlink:href="#b" id="l" x1="-70.667" x2="-70.480904" y1="14.685879" y2="14.177256" gradientTransform="matrix(37.26702 0 0 37.00667 2734.5233 -184.20726)" gradientUnits="userSpaceOnUse"/>
    <linearGradient xlink:href="#a" id="k" x1="-50.609375" x2="-46.65625" y1="40.984375" y2="40.984375" gradientTransform="matrix(8.73446 0 0 8.67344 702.67077 -58.673946)" gradientUnits="userSpaceOnUse" spreadMethod="reflect"/>
    <linearGradient id="g">
      <stop offset="0" stop-color="#ad9989" stop-opacity=".78431374"/>
      <stop offset=".5" stop-color="#ad9989" stop-opacity=".23529412"/>
      <stop offset="1" stop-color="#ad9989" stop-opacity="0"/>
    </linearGradient>
    <radialGradient id="f" cx="277.7952" cy="68.530296" r="105.2161" gradientTransform="matrix(2.5784 0 0 -.7901 -444.9816 558.1301)" gradientUnits="userSpaceOnUse">
      <stop offset="0" stop-color="#676767"/>
      <stop offset="1" stop-color="#656565" stop-opacity="0"/>
    </radialGradient>
    <radialGradient xlink:href="#c" id="h" cx="285.18573" cy="200.44757" r="300" fx="285.18573" fy="200.44757" gradientTransform="matrix(1.29144 0 0 1.22702 -189.46976 -46.444661)" gradientUnits="userSpaceOnUse"/>
    <radialGradient xlink:href="#d" id="j" cx="-225.39258" cy="127.63258" r="87.726936" fx="-225.39258" fy="127.63258" gradientTransform="rotate(180 -237.177565 135.934585) scale(1.1017)" gradientUnits="userSpaceOnUse"/>
    <radialGradient xlink:href="#e" id="m" cx="-49.04398" cy="27.630028" r="4.09375" fx="-49.04398" fy="27.630028" gradientTransform="matrix(8.73446 -5.42917 2.90088 4.60196 587.005 -207.16352)" gradientUnits="userSpaceOnUse"/>
    <radialGradient xlink:href="#f" id="i" cx="277.7952" cy="68.530296" r="105.2161" gradientTransform="matrix(2.04136 0 0 -.62116 -317.08245 455.70801)" gradientUnits="userSpaceOnUse"/>
    <radialGradient xlink:href="#g" id="o" cx="-50.913662" cy="28.084839" r="4.09375" fx="-50.913662" fy="28.084839" gradientTransform="matrix(-10.83972 .61472 .27184 5.43317 -216.62756 274.33559)" gradientUnits="userSpaceOnUse"/>
  </defs>
  <path fill="#f60" d="M249.99998064 597.65512343c0-34.92013953 25.97652026-63.26104584 57.98332272-63.26104584H440.5165958c32.00679414 0 57.98340596-28.3409063 57.98340596-63.26095514V1.80837432L1.5000094 1.80839236l-.00000824 469.32473009c0 34.92004883 25.9765369 63.26095514 57.98333854 63.26095514h132.53331823c32.00680246 0 57.98332271 28.3409063 57.98332271 63.26104584z"/>
  <path d="M249.99999632 559.11100114c0-26.8836954 24.54061641-41.14210235 54.77819857-41.14210235H429.9855261c38.61065045 0 54.77829294-26.69983595 54.77829294-59.59785146V16.22238607l-469.5276298.000017-.00000779 442.14864426c0 32.8980155 21.07592543 59.59785146 54.77822924 59.59785146h125.2073556c30.23758216 0 54.77823002 14.25840696 54.77823002 41.14210235z"/>
  <path fill="url(#h)" fill-rule="evenodd" d="M1.500007 1.4999999V471.73167c0 34.98808 25.976445 63.38422 57.983323 63.38422h132.5333c32.00689-.00009 57.98335 28.39606 57.98335 63.38411 0-34.98805 25.97648-63.38411 57.98328-63.38411 32.00687-.00009 100.52659 0 132.53341 0 32.00679 0 57.98332-28.39614 57.98332-63.38422V1.4999999H1.500007z"/>
  <path fill="url(#i)" d="M98.441635 366.96428c-40.770938 12.37532-63.225554 28.7366-63.225554 46.07274 0 36.09291 96.349319 65.45767 214.774019 65.45767 118.44054 0 214.79382-29.36476 214.79382-65.45767 0-35.97735-96.35328-65.24933-214.79382-65.24933-56.99634.003-110.81711 6.81307-151.548465 19.17659z"/>
  <path fill="url(#j)" d="M-147.72303 167.83514a87.226936 87.226936 0 1 1-174.45387 0 87.226936 87.226936 0 1 1 174.45387 0z" transform="matrix(2.04714 0 0 2.03284 729.55161 -84.413672)"/>
  <path fill-rule="evenodd" d="M202.21315 101.39229c11.9075-11.337845 20.4702-17.077846 27.69658-20.980785-5.77803.561954-8.57172 1.104842-14.18978 2.147584-.57023.304428-.92749.427003-1.51135.750399-11.67752 6.468012-25.44518 16.882132-38.79142 32.767362-21.2193 25.25609-40.92101 64.60845-48.11141 123.56547-10.01796-.56943-16.66024-3.38842-21.15895-8.00423-4.98519-5.11496-8.775293-12.61526-10.075696-21.26129-2.378876-15.81685-2.192182-30.95783-.239234-45.24103-3.68276 5.7181-4.109256 6.40462-7.124139 12.54434-.759341 10.37993-1.799415 23.51917-.193394 34.1975 1.459712 9.70545 4.841866 18.8429 11.587043 25.76366 6.0258 6.18267 14.89343 9.9803 26.44869 10.75569-1.25567 12.79724-2.26703 26.13819-2.26703 40.77159-5.36357-.93064-10.78056-1.87178-15.11354-3.00158-18.608793-4.85199-28.253816-9.07387-38.665459-17.13408.222216 3.8938.661916 5.55716 1.133514 9.37998 9.210241 6.36282 19.673145 11.87747 35.516805 16.00847 5.18479 1.3519 10.93411 2.44067 17.38057 3.50186.43676 13.34581 1.76673 25.83518 4.03028 36.76948-13.27912.20357-21.68457 1.19077-26.44869 6.00318-2.676038 2.70316-3.652485 6.29928-3.778385 9.75517-.02513.68946-.01833 1.2938 0 2.00107 1.938315 2.98921 3.864705 5.64188 5.975345 8.5045.60982-4.86815.61345-11.05465 4.10035-14.25756 1.84122-1.69124 8.14521-3.27666 22.16651-3.50186 8.86516 33.66065 26.86195 56.8199 51.38602 78.04137 5.09765 2.04421 10.29908 3.92537 15.61732 5.50291-4.44428-4.77733-10.78434-11.87262-22.54435-23.63752-16.4648-16.47165-28.25151-34.31458-35.13897-58.65609 6.56326 1.37824 14.40996 3.89025 24.18166 8.25437 13.3318 5.95409 28.94136 13.9386 45.59249 22.01166 33.30228 16.14614 70.63288 29.51565 104.03151 29.51565 11.23064 0 30.05817-2.46121 43.26517-6.51738 3.56877-2.72001 6.85389-5.42036 10.22926-8.38028-3.50871 1.23695-7.41099 2.31149-11.42842 3.39157-13.44294 3.61416-29.22349 6.00318-42.06601 6.00318-30.44339 0-67.19331-15.48816-100.25312-31.51672-16.5299-8.01428-32.16036-16.15035-45.84439-22.26178-11.70032-5.22547-21.52438-8.97877-30.22707-10.00531-2.22496-10.50067-3.55848-22.43768-4.03028-35.51881 20.13107 2.67946 45.98728 4.00211 82.11688 4.00211 54.09961.00002 104.58379-6.2894 143.57859-15.00795 19.4974-4.35928 34.73406-10.47306 47.62029-15.67251 7.79271-3.14426 15.46877-7.13572 20.39691-10.47681.13845-3.07457.1136-6.07517.0484-9.11937-3.27968 3.53017-11.01577 8.38423-22.47261 13.00691-12.25455 4.9445-28.46379 9.72719-47.60764 14.0074-38.28764 8.56047-88.1397 14.50771-141.56344 14.50771-36.82109-.00003-62.65894-1.53134-82.36887-4.25227-.002-.47363 0-.77341 0-1.25067 0-14.68961.74137-28.03369 2.01515-40.77159 25.46529-1.46345 49.472-14.47672 72.54497-30.01591 24.46719-16.47814 125.47095-85.09114 162.17586-91.78362-2.59708-2.42729-5.3443-4.78257-8.05673-6.97973-32.94548 5.53055-135.14265 75.33634-159.15698 91.50951-22.16159 14.92535-44.22513 26.75054-66.49955 28.51511 7.10768-56.81619 25.90023-94.07407 45.84438-117.81242 6.95512-8.27824 13.98475-14.47516 20.24677-20.43761z"/>
  <path fill="url(#k)" fill-rule="evenodd" d="M295.15376 290.43193c-21.69163 2.45094-44.91462 3.70274-69.0568 4.06567v8.67345c24.08785-.35944 47.35569-1.63506 69.0568-4.06568v-8.67344z"/>
  <path fill="url(#l)" fill-rule="evenodd" d="M102.62032 340.44574c-.12595.11744-.38257.12775-.50378.25012-1.82176 1.84024-2.760301 4.16152-3.2746 6.50346-.05231.23815-.210061.51076-.251892.75039-.110348.81709-.165947 1.90725-.251893 2.50132-.02511.68946-.01833 1.2938 0 2.00107 1.875485 2.89225 3.996225 5.73712 6.045415 8.5045.56291-4.49368.78014-9.9003 3.52649-13.25704l-5.28974-7.25382z"/>
  <path fill="url(#m)" fill-rule="evenodd" d="M285.24922 157.51773c-23.18791 13.67647-61.70326 39.1716-83.25176 54.10825 9.39424-1.63756 19.21249-4.36135 28.14019-8.17517 16.33178-10.87899 30.73783-20.13843 44.40286-28.18868z"/>
  <path fill="url(#n)" fill-rule="evenodd" d="m141.91552 351.20143-6.5492.7504c8.39082 26.17207 29.0889 46.72962 49.87467 62.03287-2.81079-2.89398-4.76316-5.18654-8.31245-8.75465-.93902-.94399-1.27646-1.26175-2.26703-2.25119-14.68227-14.78692-25.71125-31.06193-32.74599-51.77743z"/>
  <path fill="url(#o)" fill-rule="evenodd" d="M275.95828 392.55834c10.2476 3.10642 19.72379 5.39492 30.71127 5.90166 3.26225.15045 7.32658.31405 10.76184.19 6.93729-.25052 14.83018-1.12007 22.71887-2.48984 9.77719-1.69768 18.63759-4.09791 27.03646-6.81701-2.84601 2.50107-6.18593 5.30793-10.16398 8.35785 0 0-.47949.21573-4.6146 1.32123-2.20395.58921-5.9832 1.43312-9.7997 2.14462-5.4852 1.0226-10.11211 1.67243-14.53724 2.16042-3.69077.407-7.24117.72342-11.03212.84328-4.27399.13513-7.71606-.0001-10.95031-.16825-7.3492-.38207-13.06575-1.30717-20.65731-2.5326z"/>
</svg>